<?xml version="1.0" encoding="utf-8"?>
<!-- Generator: Adobe Illustrator 22.0.1, SVG Export Plug-In . SVG Version: 6.00 Build 0)  -->
<svg version="1.1" id="Layer_1" xmlns="http://www.w3.org/2000/svg" xmlns:xlink="http://www.w3.org/1999/xlink" x="0px" y="0px"
	 viewBox="0 0 758 376" style="enable-background:new 0 0 758 376;" xml:space="preserve">
<style type="text/css">
	.st0{fill:#FA9236;}
</style>
<g>
	<path d="M191.1,244.4c-1.8-1.6-4.1-2.4-7-2.4h-36c-2.9,0-5.2,0.8-7,2.4c-1.8,1.6-2.7,3.6-2.7,6.2v103.5c0,2.5,0.9,4.6,2.7,6.2
		c1.8,1.6,4.1,2.4,7,2.4h36c2.9,0,5.2-0.8,7-2.4c1.8-1.6,2.7-3.6,2.7-6.2v-51.9h-26.9v9.2h14.6v41.7h-31V251.5h31v27.1h12.3v-28.1
		C193.8,248,192.9,246,191.1,244.4z"/>
	<rect x="240.8" y="242" width="12.2" height="120.6"/>
	<path d="M330.2,337.7c-0.4,3.4-0.6,6.1-0.6,7.9l-0.5-7.9l-17-96H300l23.7,120.9h11.5l23.7-120.9h-11.7L330.2,337.7z"/>
	<rect x="406" y="242" width="12.2" height="120.6"/>
	<polygon points="510.1,329.2 474.3,242 465.2,242 465.2,362.6 476.6,362.6 476.6,273.9 513.2,362.6 521.6,362.6 521.6,242 
		510.1,242 	"/>
	<path d="M621.3,244.4c-1.8-1.6-4.1-2.4-7-2.4h-36c-2.9,0-5.2,0.8-7,2.4c-1.8,1.6-2.7,3.6-2.7,6.2v103.5c0,2.5,0.9,4.6,2.7,6.2
		c1.8,1.6,4.1,2.4,7,2.4h36c2.9,0,5.2-0.8,7-2.4c1.8-1.6,2.7-3.6,2.7-6.2v-51.9h-26.9v9.2h14.6v41.7h-31V251.5h31v27.1H624v-28.1
		C624,248,623.1,246,621.3,244.4z"/>
</g>
<g>
	<path class="st0" d="M142.1,221.1c2.9-0.1,5.4-1.2,7.4-3.3c2-2.1,3.8-4.1,5.5-6.2c5-6.2,9.4-12.9,13.3-20.4
		c3.8-7.4,7.5-15.1,11-22.9c4-9,7.7-18.3,11.2-27.9c3.5-9.6,7-19.4,10.3-29.4c0.1-0.4,0.3-1,0.6-1.8c0.3-0.8,0.5-1.7,0.8-2.5
		c0.3-0.8,0.6-1.6,1-2.2c0.4-0.6,0.8-1,1.3-1c0.6,0,1.1,0.4,1.4,1.2c0.3,0.8,0.5,1.7,0.7,2.8c0.1,1.1,0.2,2.2,0.1,3.3
		c-0.1,1.1-0.1,2-0.1,2.8c-0.6,5.8-1.8,11-3.4,15.6c-1.6,4.6-3.1,9.2-4.5,13.7c-4.4,12.9-8.8,25-13.3,36.2
		c-4.5,11.2-10.1,22.1-16.7,32.8c-1.5,2.4-3.2,4.8-4.9,7.2c-1.7,2.4-3.7,4.6-5.9,6.8c-1.9,2-4.2,4-6.8,6c-2.6,1.9-5.6,2.9-8.9,2.9
		c-3.2,0.1-6-0.6-8.3-2.2c-2.3-1.6-4.1-3.5-5.4-5.7c-1.8-3-3-6.6-3.6-10.9c-0.6-4.3-0.8-8.8-0.6-13.6c0.2-4.7,0.6-9.4,1.3-13.9
		c0.7-4.6,1.4-8.6,2-12.2c1.4-7.8,3.3-15.4,5.7-22.7c2.4-7.3,4.6-14.7,6.8-22.1c3.2-11.3,6.3-22.5,9.4-33.6
		c3.1-11.1,5.8-22.7,8.3-34.7c0.8-3.8,1.5-7.9,2.2-12.1c0.7-4.2,0.4-8.5-0.9-12.9c-2.8,1.2-5.3,2.8-7.3,4.9c-2.1,2.1-4,4.3-6,6.4
		c-11.7,12.4-21.9,26.8-30.8,43c-8.8,16.2-16.2,33.5-21.9,51.8c-1,3.1-2.1,6.2-3.2,9.5c-1.1,3.3-1.8,6.4-2.2,9.5
		c-0.4,2.4-0.5,4.8-0.5,7c0.1,2.2-0.5,4-1.6,5.3c-1,1-2.4,1.7-4.1,1.9c-1.7,0.3-3.5,0.2-5.2-0.2c-1.7-0.4-3.3-1-4.7-1.9
		c-1.4-0.9-2.3-2.1-2.7-3.5c-0.6-1.4-0.9-3.3-0.7-5.7c0.2-2.4,0.4-4.5,0.7-6.2c0.6-10.3,1.6-19.7,3-28.4c1.3-8.7,3-17.4,5.1-26.2
		c0.4-1.5,0.8-3.2,1.2-5c0.4-1.8,0.7-3.6,0.9-5.5c0.1-1.9,0-3.6-0.3-5.3c-0.3-1.7-1.1-3.2-2.2-4.6c-4.1,1.8-7.6,4.4-10.4,7.7
		c-2.8,3.3-5.3,6.9-7.5,10.6c-9.1,14.9-15.6,32.4-19.6,52.5c-0.5,2.2-0.8,4.8-0.9,7.8c-0.1,3,0,6.1,0.3,9.3c0,1.2,0.1,2.5,0.2,4.1
		c0.1,1.6,0.2,3.2,0.2,4.8c0,1.6-0.1,3.1-0.3,4.4c-0.2,1.3-0.5,2.3-1.1,2.8c-0.4,0.4-1,0.7-1.9,0.9c-0.9,0.2-1.9,0.3-2.9,0.3
		c-1,0-2.1-0.1-3.1-0.2c-1-0.1-1.9-0.4-2.5-0.8c-1.5-0.6-2.7-2.1-3.6-4.2c-0.8-2.2-1.4-4.6-1.8-7.4c-0.4-2.8-0.6-5.6-0.8-8.5
		c-0.1-2.9-0.3-5.4-0.4-7.6c-0.6-10.3-1.3-20.9-2-31.8c-0.7-11-1.1-22-1.1-33.2c0-5.6,0-11.3-0.1-17c-0.1-5.7,0.6-10.8,2-15.3
		c1.3-0.9,2.8-1.4,4.4-1.6c1.7-0.2,3.3,0,4.8,0.5c1.5,0.5,2.9,1.2,4.1,2.1c1.2,0.9,2,1.9,2.4,3.1c0.6,2.2,1,4.6,1,7.4
		c0,2.8,0,5.6,0,8.6c0,4,0,8.1-0.1,12.4c-0.1,4.3-0.1,8.6-0.1,12.9c0,4.3,0.1,8.5,0.2,12.6c0.1,4.1,0.3,7.9,0.6,11.3
		c2.6-7.2,5.5-14.7,8.9-22.6c3.4-7.9,7.4-14.9,12-21.1c1.7-2.2,3.6-4.4,5.9-6.6c2.2-2.2,4.9-3.5,8-3.7c4.2-0.4,7.6,0.3,10.2,2
		c2.6,1.7,4.5,4.1,5.7,7.1c1.2,3,1.8,6.5,1.8,10.4c0,3.9-0.5,7.8-1.3,11.6c3.2-5.4,6.5-10.9,9.8-16.6c3.3-5.7,6.8-11.4,10.3-17.2
		c3.5-5.8,7.2-11.5,11.1-17.1c3.8-5.6,7.9-11,12.1-16.2c2.4-3.1,5.3-6.4,8.7-9.9c3.3-3.5,6.9-6,10.8-7.4c1.5-0.6,3.2-0.9,5.1-0.9
		c1.9,0.1,3.6,0.4,5.3,1.1c3.8,1.8,7,5.2,9.3,10.2c2.4,5,3.6,10.4,3.6,16.2c-0.1,3.6-0.7,7.1-1.7,10.6c-1,3.5-1.9,6.9-2.7,10.4
		c-4.1,16.9-8.2,33.9-12.3,50.9c-4.1,17-7.8,34.3-11.2,52c-1,5.4-2,10.8-3,16.2c-1,5.4-1.6,11-1.8,16.9c-0.1,1.8-0.2,3.7-0.3,5.7
		C141,217.4,141.3,219.3,142.1,221.1z"/>
	<path class="st0" d="M204,188.8c2-0.4,3.7-1.3,5.1-2.8c1.3-1.5,2.6-2.9,3.7-4.3c3.6-4.2,7-8.7,10.2-13.4c3.2-4.7,6.3-9.5,9.4-14.3
		c3.1-4.9,6.2-9.7,9.2-14.5c3.1-4.8,6.3-9.5,9.8-13.9c1-1.4,2.2-2.9,3.6-4.3c1.3-1.5,3-2.2,4.9-2.2c0.3,1,0.1,2-0.6,2.8
		c-0.6,0.8-1.2,1.6-1.7,2.4c-5.4,9.2-10.5,18.4-15.4,27.6c-4.9,9.2-10.1,18.6-15.6,28.2c-1.8,3.2-3.8,6.5-6.2,9.8
		c-2.3,3.3-5.1,5.7-8.3,7.1c-3,1.3-6.1,1.3-9.3,0.2c-3.3-1.2-5.7-2.6-7.2-4.4c-1.9-2.3-3.2-5.3-3.7-8.8c-0.6-3.6-0.8-7.4-0.6-11.3
		c0.2-4,0.6-8,1.3-12c0.7-4,1.3-7.7,1.8-11.1c1.4-9,3.3-17.8,5.7-26.4c2.4-8.7,5.3-16.6,8.7-23.9c0.9-1.9,2-4,3.2-6.2
		c1.2-2.2,2.6-4.2,4.1-6.2c1.5-1.9,3.3-3.6,5.2-5c1.9-1.4,4-2.2,6.2-2.5c2.8-0.4,5.3,0,7.4,1.1c2.1,1.1,4.1,2.3,5.9,3.7
		c1.2,0.8,2.6,1.7,4.2,2.7c1.7,1,2.7,2.1,3.1,3.1c0.5,1.2,0.7,2.5,0.5,4c-0.2,1.5-0.6,3.1-1.2,4.6c-0.6,1.5-1.3,3-2.1,4.4
		c-0.8,1.4-1.5,2.6-2,3.5c-3,4.6-6,8.9-9.2,13c-3.2,4-6.7,7.9-10.4,11.6c-0.6,0.6-1.4,1.4-2.4,2.3c-1,0.9-2.1,1.9-3.4,2.9
		c-1,0.6-2.2,1.3-3.5,2.1c-1.3,0.8-2.2,1.6-2.9,2.5c-0.8,1.2-1.4,2.9-1.9,5.1c-0.5,2.2-1,4.3-1.5,6.1c-1,4.1-1.9,8.1-2.6,11.9
		c-0.7,3.8-1.4,8-2,12.5c-0.3,2.1-0.5,4.2-0.8,6.3C202.6,184.8,203,186.8,204,188.8z M235.6,91.3c-4.1,3.2-7.7,7.7-10.7,13.6
		c-3,5.8-5.5,11.5-7.6,17c4.5-3.7,8.6-8,12.4-12.9c3.8-4.9,7-10.3,9.5-16.2c-0.3-0.8-0.8-1.4-1.5-1.8
		C236.9,90.5,236.2,90.6,235.6,91.3z"/>
	<path class="st0" d="M331.5,202.4c1.7-1,2.9-2.5,3.7-4.3c0.8-1.9,1.6-3.7,2.4-5.5c4-9.2,7.7-18.8,11.2-28.6
		c3.5-9.9,7-19.7,10.6-29.4c0.6-1.9,1.3-3.9,2.1-5.9c0.8-2,1.5-3.9,2.1-5.9c0.6-1.8,1.2-3.7,1.7-5.8c0.5-2,1.7-3.7,3.5-4.8
		c1,2.1,1.2,4.2,0.7,6.3c-0.6,2.2-1.1,4.2-1.6,6.2c-3.1,11.8-6.8,23.2-11.2,34.2c-4.4,11-8.6,22.1-12.7,33.3
		c-0.6,1.8-1.3,3.6-1.9,5.4c-0.6,1.8-1.4,3.5-2.2,5.2c-0.8,1.7-1.8,3.1-3,4.4c-1.2,1.3-2.6,2.2-4.2,2.9c-2.7,1-5.2,0.8-7.5-0.8
		c-2.3-1.5-4-3.2-5-5c-1.7-3-2.7-6.6-3.2-10.9c-0.5-4.3-0.5-8.5-0.3-12.6c0.3-8.8,1-17.1,2.1-24.9c1.2-7.8,2.6-15.3,4.2-22.6
		c0.8-3.7,1.6-7.4,2.6-11c1-3.6,1.4-7.4,1.2-11.5c-2.2,1-4.2,2.6-6,4.6c-1.8,2.1-3.4,4.2-4.8,6.3c-3.1,4.5-5.8,9-8.2,13.7
		c-2.4,4.6-4.7,9.6-7,15c-0.5,1-1,2.2-1.4,3.6c-0.5,1.3-1.1,2.7-1.8,4.1c-0.3,0.5-0.6,1.1-1.2,1.6c-0.5,0.6-1.1,1.1-1.6,1.5
		c-0.6,0.5-1.2,0.8-1.9,1c-0.7,0.2-1.3,0.2-1.8-0.1c-0.5-0.3-0.9-0.8-1.2-1.7c-0.3-0.9-0.5-1.9-0.6-3c-0.1-1.1-0.2-2.2-0.3-3.3
		c-0.1-1.1-0.1-2-0.1-2.6c-0.4-6.5-0.4-12.8,0.1-18.7c0.4-5.9,0.7-11.9,0.9-18.1c-0.6,0-1.2,0.3-1.5,0.8c-0.4,0.5-0.7,0.9-1,1.2
		c-2.6,3.3-4.8,7-6.7,11.1c-1.9,4-3.8,8.1-5.6,12.2c-1,2.2-2.1,4.5-3.1,6.8c-1,2.4-2.1,4.8-3.1,7.4c-0.5,1-1,2.2-1.4,3.7
		c-0.5,1.4-0.9,2.7-1.4,3.9c-0.5,1.2-1.2,2.3-1.9,3.3c-0.8,1-1.7,1.6-2.7,1.8c-1.5,0.4-3.1,0.3-4.8-0.4c-1.7-0.6-2.8-1.3-3.5-1.9
		c-0.9-0.9-1.5-2.3-1.9-4.2c-0.4-1.9-0.6-4-0.8-6.2c-0.1-2.2-0.2-4.5-0.2-6.8s0-4.4,0-6.2c0-4.7,0.2-9.2,0.6-13.3
		c0.4-4.1,0.6-8,0.8-11.7c0-0.6-0.1-1.3-0.2-1.9c-0.1-0.6-0.1-1.3,0.2-1.9c0.3-0.8,0.9-1.3,1.8-1.5c1-0.3,2-0.4,3.2-0.3
		c1.2,0.1,2.3,0.2,3.5,0.4c1.2,0.2,2.1,0.4,2.9,0.7c0.8,2.6,1.2,5.2,1.2,8c0,2.8-0.1,5.5-0.3,8.4c-0.2,2.8-0.4,5.6-0.7,8.5
		c-0.3,2.8-0.4,5.6-0.4,8.5c1.5-2.9,3-6.2,4.5-9.6c1.5-3.5,3-6.9,4.6-10.3c1.6-3.4,3.4-6.6,5.3-9.7c1.9-3.1,4.2-5.7,6.7-7.9
		c0.5-0.4,1.1-0.8,1.6-1.2c0.6-0.4,1.2-0.8,1.8-1.1c0.6-0.4,1.6-0.7,2.8-0.9c1.2-0.2,2.4-0.3,3.7-0.2c1.2,0.1,2.3,0.3,3.3,0.7
		c1,0.4,1.6,1,2,1.7c0.3,0.9,0.2,2.1-0.1,3.7c-0.3,1.5-0.5,2.9-0.7,4c-0.5,4.1-0.9,8.1-1.2,12.1c-0.3,4-0.6,8-0.9,12.1
		c1.3-3.2,2.9-6.4,4.7-9.7c1.9-3.3,3.9-6.5,6.1-9.7c2-2.9,4.2-5.9,6.3-8.9c2.2-3,4.5-5.6,7.1-7.8c0.6-0.6,1.6-1.4,3-2.4
		c1.3-1,2.5-1.6,3.6-1.8c2-0.4,4.2-0.2,6.5,0.7c2.3,0.8,4,1.8,5,2.8c1,1.4,1.7,3.3,2.1,5.8c0.4,2.4,0.5,5,0.4,7.7
		c-0.3,3.7-0.9,7.1-2,10.3c-1.1,3.1-2,6.4-2.8,9.9c-1.2,4.7-2.2,9.8-3.3,15.2c-1,5.4-1.8,11-2.4,16.7c-0.6,5.8-0.8,11.7-0.8,17.7
		C329.9,190.7,330.5,196.6,331.5,202.4z"/>
	<path class="st0" d="M426.9,116.5c-1.2,1.4-2.9,2.5-5.2,3.3c-2.3,0.8-4.6,1.5-6.9,2.1c-3,0.8-6.2,1.4-9.6,2
		c-3.5,0.6-6.7,0.4-9.8-0.5c2.4,7.3,4,15.3,4.7,23.9c0.7,8.7,0.2,16.8-1.6,24.5c-1.5,7.2-4.1,13.8-7.7,20c-1.8,2.9-3.7,5.8-5.8,8.5
		c-2.1,2.7-4.2,4.9-6.5,6.7c-1.9,1.4-4.1,2.3-6.5,2.8c-2.4,0.4-4.8,0.5-7.1,0.1c-2.3-0.4-4.4-1.2-6.3-2.3s-3.4-2.7-4.4-4.6
		c-1.5-2.8-2.5-6.2-3-10.1c-0.4-3.9-0.6-8-0.4-12.2c0.2-4.2,0.6-8.4,1.2-12.5c0.6-4.1,1.2-7.7,1.8-10.8c1.2-6.2,2.3-11.6,3.5-16.3
		c1.2-4.7,2.6-9.8,4.2-15.2c0.5-1.7,1-3.4,1.4-5.1c0.4-1.7,1.1-3.3,1.8-4.8c0.8-1.5,1.7-2.8,2.8-3.8c1.1-1.1,2.5-1.8,4.3-2
		c1.4-0.3,2.7-0.1,3.8,0.4c1.2,0.5,2.4,0.9,3.8,1.2c0.4,0,0.8-0.1,1.3-0.2c0.5-0.1,1-0.2,1.3-0.2c0.6,0,1.3,0.1,1.9,0.4
		c0.6,0.3,1.3,0.5,1.9,0.8c0.6,0.3,1.3,0.5,2.1,0.6c0.8,0.1,1.3,0.3,1.7,0.6c0.6,0.3,1.1,0.7,1.4,1.4c0.3,0.7,0.8,1.2,1.4,1.6
		c0.9,0.5,2.1,0.9,3.6,1.2c1.5,0.3,3,0.4,4.7,0.4c1.7,0,3.3,0,4.9-0.1c1.6-0.1,3-0.1,4.3-0.1c3.2-0.1,6.1-0.4,8.7-0.7
		C421.5,117,424.2,116.7,426.9,116.5z M377.8,135.3c-1.4,3.8-2.8,8-4.2,12.5c-1.4,4.5-2.7,9.1-3.8,13.7c-1.2,4.7-2.1,9.5-2.8,14.3
		c-0.7,4.9-1.1,9.6-1.1,14.2c0,2,0.1,4,0.3,5.8c0.2,1.8,0.8,3.5,1.8,5.2c2.8-1.2,5.1-3.2,6.9-6.1c1.8-2.9,3.4-5.9,4.8-8.9
		c2.9-6.3,5.4-13,7.3-20.2c1.9-7.2,2.9-15.2,3.1-24c0-4.2-0.3-8.4-0.9-12.4c-0.6-4-1.8-7.5-3.7-10.3h-0.4c-1.4,1.8-2.7,4.2-3.9,7.2
		C380,129.4,378.9,132.4,377.8,135.3z"/>
	<path class="st0" d="M427.3,124.2c1.5,0.9,3.3,1.6,5.2,2.2c1.9,0.6,4,1.1,6.2,1.6c2,0.5,4.2,1,6.3,1.3c2.2,0.4,3.6,1.5,4.2,3.3
		c0.6,2.2,0.4,4.7-0.6,7.5c-1,2.8-1.8,5.3-2.3,7.5c-0.9,3.6-1.6,7.5-2.1,11.7c-0.5,4.2-0.8,8.5-0.8,12.8c0,4.3,0.2,8.6,0.6,12.8
		c0.4,4.2,1.1,8.1,2.1,11.7c2.8-2.6,5.2-5.6,7.2-9c2-3.5,4-7,6.1-10.6c2.4-4.4,4.7-8.9,6.9-13.6c2.2-4.7,4.4-9.4,6.6-14
		c2.2-4.7,4.6-9.3,7-13.7c2.4-4.5,5.1-8.7,8.1-12.7c1.2-1.4,2.3-2.9,3.6-4.5c1.2-1.6,2.8-2.7,4.7-3.4c0.6,0.8,0.9,1.6,0.9,2.5
		c-0.1,0.9-0.3,1.8-0.7,2.7c-0.4,0.9-0.9,1.8-1.4,2.6c-0.6,0.8-1.1,1.6-1.4,2.2c-4.4,7.9-8.4,16.3-12.2,25.2
		c-3.8,8.8-7.5,17.6-11.1,26.3c-1,2.6-2.1,5.2-3.2,7.9c-1.1,2.7-2.3,5.3-3.6,7.8c-1.3,2.5-2.7,4.8-4.3,6.9c-1.6,2.1-3.5,3.9-5.7,5.3
		c-1.3,0.8-2.7,1.3-4.3,1.6c-1.6,0.3-3.2,0.4-4.7,0.2c-1.5-0.2-3-0.7-4.3-1.4c-1.3-0.8-2.4-1.7-3.2-2.9c-1.2-1.8-2.1-4-2.7-6.7
		c-0.6-2.7-1.2-5.3-1.7-7.9c-0.9-4.4-1.4-8.8-1.4-13.5c-0.1-4.6,0.1-9.2,0.5-13.7c0.4-4.5,1-8.8,1.8-13c0.8-4.2,1.8-8.1,2.8-11.8
		c-3.5-0.9-6.8-2-9.9-3.5c-3.1-1.4-6-3.2-8.5-5.5c-2.5-2.2-4.5-4.9-6-8.1c-1.5-3.1-2.2-7-2.2-11.4c0-5.8,1-11.1,3-15.9
		c2-4.8,4.6-8.7,7.8-11.8c1.2-1,2.3-2.1,3.6-3.3c1.2-1.2,2.5-1.9,3.9-2.1c3.3-0.5,6.6-0.1,9.7,1.2c3.1,1.3,5.3,2.9,6.4,4.8
		c0.5,0.8,0.8,1.6,1,2.5c0.1,0.9,0.3,1.7,0.4,2.5c0.3,4.2-0.5,8.1-2.1,11.7c-1.7,3.6-3.3,6.9-5,10c-1.8,3.3-3.7,6.4-5.6,9.3
		C430.9,118.9,429,121.6,427.3,124.2z M430.1,101.9c1.3-2.3,2.5-4.8,3.7-7.6c1.2-2.8,1.8-5.6,1.6-8.6c-0.1-1-0.4-2.1-0.8-3.2
		c-0.4-1.1-1-1.7-1.9-1.8c-1-0.1-2,0.6-2.8,2.1c-0.8,1.5-1.5,2.7-2,3.5c-1.2,1.8-2.2,3.7-3.3,5.9c-1,2.1-1.9,4.4-2.6,6.7
		c-0.7,2.4-1.2,4.8-1.3,7.4c-0.2,2.6,0,5.2,0.7,7.9C424.4,111.1,427.3,107,430.1,101.9z"/>
	<path class="st0" d="M539,179.3c2.3-1.7,4.1-3.8,5.4-6.4c1.3-2.6,2.6-5.2,3.8-7.8c3.7-7.8,7.1-16.1,10.3-24.7
		c3.1-8.7,5.9-17.5,8.4-26.6c1.4,0.3,2.2,0.8,2.4,1.7c0.2,0.9,0.4,1.9,0.5,3.1c0.3,3.7-0.2,7.5-1.2,11.3c-1.1,3.8-2.1,7.4-3.2,10.8
		c-1.9,6.9-4,13.5-6.3,19.8c-2.3,6.3-5.1,12.5-8.3,18.7c-1.4,2.6-3.2,5.3-5.5,8.3c-2.2,2.9-4.9,4.5-8,4.8c-2.2,0.1-4.3-0.4-6.3-1.4
		c-2.1-1.1-3.6-2.2-4.6-3.4c-1.5-1.9-2.6-4.4-3.1-7.3c-0.5-2.9-0.8-6.2-0.8-9.6c0-3.5,0.1-7,0.4-10.6c0.3-3.6,0.3-6.9,0.2-10
		c-1.3,3.5-2.6,7-3.9,10.6c-1.3,3.6-3,7.1-5.1,10.4c-1,1.7-2.3,3.5-3.8,5.6c-1.5,2.1-3.3,3.8-5.4,5.4c-2.1,1.5-4.3,2.6-6.7,3.2
		c-2.4,0.6-5,0.2-7.7-1.1c-3.3-1.5-5.7-4.1-7.1-7.6c-1.4-3.5-2.2-7.4-2.3-11.6c-0.1-4.2,0.3-8.6,1.2-13.1c0.9-4.5,1.9-8.5,3.1-11.9
		c2.3-6.9,5-13.3,8.2-19c3.1-5.8,6.8-10.5,11.1-14.2c1.2-1,2.6-2,4.3-3.1c1.7-1,3.4-1.7,5.1-1.9c2.6-0.3,4.9-0.1,6.9,0.6
		c2,0.6,4.2,1.2,6.3,1.5c0.5-2.2,1.9-3.8,4.1-4.8c2.2-1,4.5-0.6,6.6,1.2c1.5,1.2,2.6,2.9,3.1,5.1c0.5,2.2,0.8,4.7,0.9,7.4
		c0.1,2.7-0.1,5.4-0.4,8.3c-0.3,2.8-0.5,5.4-0.7,7.7c-0.3,2.8-0.5,5.6-0.8,8.5c-0.3,2.8-0.5,5.8-0.8,8.8c-0.5,6.2-1,12.2-1.4,18.1
		C537.3,169.7,537.7,174.9,539,179.3z M517.4,115.3c-2.4,3.8-4.8,8-7.2,12.4c-2.4,4.4-4.5,9.1-6.4,13.9c-1.9,4.9-3.5,10-4.6,15.4
		c-1.2,5.4-1.6,10.9-1.3,16.5c3.5-2.2,6.3-5.1,8.5-8.7c2.2-3.7,4.4-7.3,6.5-11.1c1-1.8,2-3.7,3.1-5.6c1-1.9,2-3.9,3.1-6
		c1-1.9,2.1-3.9,3.2-6.1c1.1-2.1,1.9-4.1,2.4-6.1c0.8-3.3,1.2-6.7,1.2-10c0-3.3,0.3-6.7,1-10.2c-1.2-0.8-2.2-1.1-3.2-1
		c-1,0.1-1.8,0.5-2.5,1.2c-0.7,0.6-1.3,1.4-1.9,2.4C518.5,113.5,517.9,114.4,517.4,115.3z"/>
	<path class="st0" d="M575.7,154.9c1-2.7,2-5.5,2.9-8.4c0.9-2.9,1.9-5.6,3.1-8.3c1.2-2.6,2.6-5,4.3-7c1.7-2,3.9-3.5,6.4-4.4
		c3.1-1.2,6-1.5,8.7-1.1c2.8,0.5,5.2,1.4,7.3,2.9c2.1,1.5,3.9,3.3,5.4,5.6c1.5,2.2,2.5,4.6,3,7c3.2-2.9,6.6-6.3,10.2-10
		c3.6-3.7,6.7-7.4,9.2-11c0.3-0.4,0.7-1.2,1.2-2.3c0.6-1.2,1.1-1.7,1.6-1.7c0.5,0,0.9,0.2,1.2,0.6c0.3,0.4,0.4,0.9,0.4,1.4
		c0,0.6-0.1,1.2-0.2,1.7c-0.1,0.6-0.3,1.1-0.4,1.4c-0.9,2.6-2.1,4.8-3.7,6.8c-1.6,2-3.3,3.9-5.1,5.7c-2.4,2.6-4.8,5-7.1,7.3
		c-2.3,2.3-4.6,4.7-6.7,7.3c-0.5,9.9-2.1,18.7-4.9,26.5c-2.8,7.8-7.5,13.7-14.3,17.7c-0.6,0.4-1.7,0.9-3.3,1.5
		c-1.5,0.6-3.2,1.2-4.9,1.5c-1.7,0.4-3.3,0.5-4.8,0.3c-1.5-0.2-2.5-0.9-3-2.2c-0.4-0.9-0.5-1.9-0.2-3.1c0.3-1.2,0.6-2.3,1.1-3.5
		c0.4-1.2,1-2.2,1.5-3.3c0.6-1,1.1-1.9,1.4-2.7c2.8-5.8,6-11.1,9.4-16.1c3.5-4.9,7-9.5,10.6-13.7c-0.6-3.5-1.2-6.9-1.7-10.4
		c-0.5-3.5-1.9-6.2-4-8.1c-2.6,1.4-4.6,3.7-6,6.8c-1.4,3.1-3,6.4-4.6,9.7c-0.6,1.4-1.3,2.9-2,4.3c-0.7,1.5-1.5,3.1-2.4,4.9
		c-0.6,1.3-1.4,2.8-2.2,4.6c-0.8,1.8-1.8,3-3,3.7c-1,0.5-2.2,0.8-3.6,0.8c-1.3,0-2.7-0.2-3.9-0.5c-1.3-0.3-2.5-0.7-3.7-1.2
		c-1.2-0.4-2.3-0.9-3.2-1.4c-2.4-6.4-3.9-13.9-4.5-22.4c-0.6-8.5-0.5-17,0.3-25.5c0.8-7.9,2-15.6,3.6-23c1.6-7.4,3.3-14.5,5.1-21.4
		c1.8-6.9,3.8-13.7,6-20.5c2.2-6.7,4.7-13.2,7.5-19.3c1.4-2.9,2.9-5.8,4.5-8.6c1.6-2.8,3.5-5.4,5.7-7.8c1.9-2.2,4.5-4.3,7.9-6.2
		c3.3-2,6.6-3.1,9.8-3.4c2.7-0.3,5.1,0,7.3,0.9c2.2,0.8,4.1,2,5.8,3.6c1.7,1.5,2.9,3.4,3.8,5.6c0.9,2.2,1.5,4.5,1.7,6.9
		c0.3,3.3,0.2,6.5-0.3,9.5c-0.5,3-1.1,5.9-2,8.7c-0.9,2.8-1.9,5.5-3.1,8.2c-1.2,2.6-2.2,5.1-3.1,7.4c-3.1,7.4-6.3,14.8-9.6,22.2
		c-3.3,7.4-6.9,14.5-10.8,21.3c-3.8,6.9-7.9,13.4-12.3,19.5c-4.4,6.2-9.1,11.8-14.2,16.9C574.3,143.3,574.7,149,575.7,154.9z
		 M603.2,78.4c2-4.1,4-8.2,5.9-12.2c1.9-4,3.7-8.3,5.5-12.8c1.8-4.5,3.5-9.1,5-13.9c1.5-4.8,2.2-9.9,2.1-15.3c0-2.4-0.4-4.6-1.1-6.5
		c-0.7-1.9-1.8-3.2-3.4-3.8c-2.3,0.4-4.5,1.2-6.5,2.6c-2.1,1.3-4,3-5.8,4.8c-1.8,1.9-3.4,3.9-4.9,6.1c-1.5,2.2-2.7,4.2-3.7,6.2
		c-3.2,5.9-6,12.4-8.3,19.4c-2.3,7.1-4.3,14.5-5.9,22.2c-1.6,7.8-2.9,15.7-3.9,23.7c-1,8.1-1.9,16.2-2.5,24.2
		c5.3-6,10.1-12.8,14.5-20.5C594.6,94.9,599,86.9,603.2,78.4z M590.3,189c4.9-1.9,8.6-5.4,11.2-10.4c2.6-5,4.1-10.6,4.6-16.7
		c-3.1,4.1-6,8.3-8.8,12.5C594.4,178.6,592.1,183.4,590.3,189z"/>
	<path class="st0" d="M644.9,187.4c1.7-0.8,3-1.9,4.1-3.5c1.1-1.5,2.1-3.1,3.2-4.6c6.2-8.8,12-18.1,17.5-27.9
		c5.5-9.7,11-19.5,16.5-29.4c0.4-0.6,0.8-1.4,1.2-2.3c0.4-0.9,1-1.7,1.5-2.4c0.6-0.7,1.3-1.2,2.1-1.6c0.8-0.4,1.8-0.5,2.8-0.4
		c0.5,1,0.4,2-0.2,3c-0.6,1-1.2,1.8-1.5,2.6c-1.4,2.8-2.9,5.5-4.3,8.2c-1.5,2.6-3,5.2-4.5,7.8c-5,8.8-9.7,17.8-14.2,26.9
		c-4.5,9.1-9.7,17.8-15.6,26c-0.8,1.2-1.6,2.3-2.6,3.5c-1,1.2-2,2.1-3.2,2.9c-1.2,0.8-2.4,1.2-3.7,1.4c-1.3,0.2-2.9-0.2-4.5-1.1
		c-3.2-1.7-5.5-4.3-6.9-8c-1.4-3.7-2.3-7.8-2.6-12.3c-0.3-4.5-0.2-9.3,0.3-14.2c0.5-4.9,1.1-9.5,1.7-13.7c2.3-15.1,5-29.4,8-43
		c3-13.5,6.9-26.8,11.6-39.7c1-2.8,2.2-5.8,3.5-8.8c1.3-3.1,2.7-6.1,4.3-8.9c1.6-2.9,3.4-5.5,5.4-8c2-2.4,4.1-4.4,6.4-5.8
		c1.8-1.2,4-2.1,6.7-2.8c2.7-0.7,5.4-1.1,8.2-1.2c2.8-0.1,5.3,0.4,7.7,1.2c2.4,0.9,4.1,2.4,5.3,4.4c1,2.1,1.5,4.4,1.5,7.1
		c0.1,5-0.7,9.8-2.5,14.4c-1.8,4.6-3.5,8.8-5,12.5c-4.1,10.1-8.8,19.8-14.2,28.9c-5.4,9.2-11.5,17.2-18.5,24.1
		c-0.6,0.6-1.3,1.3-2.1,2c-0.8,0.7-1.6,1.4-2.5,2c-0.6,0.5-1.6,1.1-2.8,1.7c-1.2,0.6-2,1.2-2.2,1.7c-0.4,0.6-0.6,1.7-0.8,3.2
		c-0.1,1.5-0.3,2.7-0.6,3.7c-1,6-2,11.9-3,17.6c-1,5.7-1.8,11.6-2.4,17.8c-0.3,2.6-0.5,5.1-0.6,7.7
		C643.4,182.9,643.9,185.2,644.9,187.4z M686.8,68c1.4-3.3,2.9-7,4.3-11.2c1.5-4.1,2-8.5,1.6-13.3c-0.1-1.7-0.5-3.4-1.2-5.1
		c-0.7-1.7-1.8-2.7-3.2-3c-0.8-0.1-1.6,0.1-2.4,0.8c-0.8,0.6-1.6,1.4-2.4,2.2c-0.8,0.8-1.5,1.7-2.2,2.7c-0.7,1-1.2,1.7-1.6,2.2
		c-3.3,4.9-6.2,9.8-8.7,14.9c-2.5,5.1-4.8,10.3-7,15.7c-3.1,8.1-5.4,16.4-6.9,24.9c-1.5,8.5-3.2,16.9-5,25.1
		c6.5-7.3,12.8-15.9,18.9-25.7C677,88.5,682.3,78.4,686.8,68z"/>
	<path class="st0" d="M688.7,188.8c2-0.4,3.7-1.3,5.1-2.8c1.3-1.5,2.6-2.9,3.7-4.3c3.6-4.2,7-8.7,10.2-13.4
		c3.2-4.7,6.3-9.5,9.4-14.3c3.1-4.9,6.2-9.7,9.2-14.5c3.1-4.8,6.3-9.5,9.8-13.9c1-1.4,2.2-2.9,3.6-4.3c1.3-1.5,3-2.2,4.9-2.2
		c0.3,1,0.1,2-0.6,2.8c-0.6,0.8-1.2,1.6-1.7,2.4c-5.4,9.2-10.5,18.4-15.4,27.6c-4.9,9.2-10.1,18.6-15.6,28.2
		c-1.8,3.2-3.8,6.5-6.2,9.8c-2.3,3.3-5.1,5.7-8.3,7.1c-3,1.3-6.1,1.3-9.3,0.2c-3.3-1.2-5.7-2.6-7.2-4.4c-1.9-2.3-3.2-5.3-3.7-8.8
		c-0.6-3.6-0.8-7.4-0.6-11.3c0.2-4,0.6-8,1.3-12c0.7-4,1.3-7.7,1.8-11.1c1.4-9,3.3-17.8,5.7-26.4c2.4-8.7,5.3-16.6,8.7-23.9
		c0.9-1.9,2-4,3.2-6.2c1.2-2.2,2.6-4.2,4.1-6.2c1.5-1.9,3.3-3.6,5.2-5c1.9-1.4,4-2.2,6.2-2.5c2.8-0.4,5.3,0,7.4,1.1
		c2.1,1.1,4.1,2.3,5.9,3.7c1.2,0.8,2.6,1.7,4.2,2.7c1.7,1,2.7,2.1,3.1,3.1c0.5,1.2,0.7,2.5,0.5,4c-0.2,1.5-0.6,3.1-1.2,4.6
		c-0.6,1.5-1.3,3-2.1,4.4c-0.8,1.4-1.5,2.6-2,3.5c-3,4.6-6,8.9-9.2,13c-3.2,4-6.7,7.9-10.4,11.6c-0.6,0.6-1.4,1.4-2.4,2.3
		c-1,0.9-2.1,1.9-3.4,2.9c-1,0.6-2.2,1.3-3.5,2.1c-1.3,0.8-2.2,1.6-2.9,2.5c-0.8,1.2-1.4,2.9-1.9,5.1c-0.5,2.2-1,4.3-1.5,6.1
		c-1,4.1-1.9,8.1-2.6,11.9c-0.7,3.8-1.4,8-2,12.5c-0.3,2.1-0.5,4.2-0.8,6.3C687.3,184.8,687.7,186.8,688.7,188.8z M720.3,91.3
		c-4.1,3.2-7.7,7.7-10.7,13.6c-3,5.8-5.5,11.5-7.6,17c4.5-3.7,8.6-8,12.4-12.9c3.8-4.9,7-10.3,9.5-16.2c-0.3-0.8-0.8-1.4-1.5-1.8
		C721.6,90.5,720.9,90.6,720.3,91.3z"/>
</g>
</svg>
